<svg width="172" height="57" viewBox="0 0 172 57" fill="none" xmlns="http://www.w3.org/2000/svg">
<g clip-path="url(#clip0_578_362)">
<path d="M166.028 34.6747L170.769 37.8353C169.231 40.1016 165.55 43.9901 159.188 43.9901C151.286 43.9901 145.402 37.877 145.402 30.1003C145.402 21.825 151.349 16.2109 158.522 16.2109C165.737 16.2109 169.272 21.9495 170.416 25.0477L171.04 26.6281L152.451 34.3213C153.865 37.1076 156.069 38.5215 159.188 38.5215C162.307 38.5215 164.469 36.9828 166.028 34.6747ZM151.453 29.6641L163.866 24.5073C163.18 22.7816 161.143 21.555 158.709 21.555C155.612 21.555 151.308 24.2997 151.453 29.6641Z" fill="#A9A9B9"/>
<path d="M136.439 2.05112H142.427V42.7217H136.439V2.05078V2.05112Z" fill="#A9A9B9"/>
<path d="M126.999 17.2912H132.779V41.993C132.779 52.2436 126.728 56.4645 119.576 56.4645C112.839 56.4645 108.785 51.9318 107.267 48.2516L112.569 46.0474C113.525 48.3137 115.833 50.9963 119.576 50.9963C124.171 50.9963 126.999 48.1475 126.999 42.8248V40.8288H126.791C125.418 42.492 122.798 43.989 119.472 43.989C112.527 43.989 106.164 37.9383 106.164 30.1413C106.164 22.3022 112.527 16.1895 119.472 16.1895C122.778 16.1895 125.418 17.6657 126.791 19.2876H126.999V17.2916V17.2912ZM127.414 30.1413C127.414 25.2341 124.15 21.6577 119.991 21.6577C115.791 21.6577 112.256 25.2341 112.256 30.1413C112.256 34.9857 115.791 38.4997 119.991 38.4997C124.15 38.5207 127.415 34.9857 127.415 30.1413H127.414Z" fill="#A9A9B9"/>
<path d="M73.2925 30.039C73.2925 38.0443 67.0549 43.9284 59.4031 43.9284C51.7516 43.9284 45.5137 38.0236 45.5137 30.039C45.5137 21.9923 51.7516 16.1289 59.4031 16.1289C67.0549 16.1289 73.2925 21.9923 73.2925 30.039ZM67.2211 30.039C67.2211 25.0491 63.603 21.6178 59.4031 21.6178C55.2032 21.6178 51.585 25.0491 51.585 30.039C51.585 34.9876 55.2032 38.4602 59.4031 38.4602C63.6033 38.4602 67.2211 34.9876 67.2211 30.039Z" fill="#A9A9B9"/>
<path d="M103.628 30.1003C103.628 38.1056 97.3905 43.9898 89.739 43.9898C82.0872 43.9898 75.8496 38.1053 75.8496 30.1003C75.8496 22.0537 82.0872 16.2109 89.739 16.2109C97.3905 16.2109 103.628 22.033 103.628 30.1003ZM97.536 30.1003C97.536 25.1104 93.9182 21.6792 89.718 21.6792C85.5181 21.6792 81.9 25.1104 81.9 30.1003C81.9 35.0489 85.5181 38.5215 89.718 38.5215C93.9389 38.5215 97.536 35.0282 97.536 30.1003Z" fill="#A9A9B9"/>
<path d="M22.6829 37.8984C13.9707 37.8984 7.15096 30.8704 7.15096 22.1582C7.15096 13.4464 13.9707 6.41838 22.6829 6.41838C27.3821 6.41838 30.8126 8.26883 33.3493 10.6393L37.5289 6.4601C33.9942 3.07094 29.2743 0.492188 22.6829 0.492188C10.7481 0.492521 0.705078 10.2238 0.705078 22.1582C0.705078 34.0934 10.7481 43.8243 22.6829 43.8243C29.1287 43.8243 33.9942 41.7035 37.7992 37.7529C41.7081 33.8437 42.914 28.3544 42.914 23.9049C42.914 22.5117 42.7478 21.0771 42.5606 20.0167H22.6829V25.7971H36.8426C36.4268 29.4152 35.2832 31.8895 33.599 33.5734C31.5613 35.6321 28.3387 37.8984 22.6829 37.8984Z" fill="#A9A9B9"/>
</g>
<defs>
<clipPath id="clip0_578_362">
<rect width="170.893" height="56.0743" fill="white" transform="translate(0.457031 0.40625)"/>
</clipPath>
</defs>
</svg>
