<svg width="102" height="45" viewBox="0 0 102 45" fill="none" xmlns="http://www.w3.org/2000/svg">
<path d="M23.013 0.28125C17.1354 0.28125 11.4986 2.61611 7.34249 6.77218C3.18642 10.9282 0.851563 16.5651 0.851562 22.4427C0.851563 28.3202 3.18642 33.9571 7.34249 38.1131C11.4986 42.2692 17.1354 44.6041 23.013 44.6041C28.8159 44.4912 34.3431 42.1067 38.407 37.9629C42.471 33.8192 44.7475 28.2467 44.7475 22.4427C44.7475 16.6386 42.471 11.0662 38.407 6.92238C34.3431 2.77859 28.8159 0.394131 23.013 0.28125ZM23.013 3.88678C23.2226 3.88678 23.667 3.88678 23.8934 3.89516V5.62665C23.6 5.62035 23.3065 5.61616 23.013 5.61407C20.8039 5.60856 18.6157 6.04109 16.5748 6.88665C14.5339 7.7322 12.681 8.97401 11.1231 10.5402C9.55615 12.0975 8.31385 13.9504 7.46824 15.9914C6.62263 18.0324 6.19052 20.2209 6.19696 22.4301C6.19696 26.9244 7.94523 31.1504 11.1231 34.3199C12.681 35.8862 14.5339 37.128 16.5748 37.9735C18.6157 38.8191 20.8039 39.2516 23.013 39.2461C27.2757 39.2383 31.3772 37.6159 34.4912 34.7056C37.6053 31.7954 39.5006 27.8135 39.7954 23.5621V23.3105H28.3165V21.5916H40.8142L41.5563 21.5874V22.4301C41.564 24.8661 41.0885 27.2795 40.1573 29.5305C39.2261 31.7815 37.8577 33.8255 36.1312 35.5441C34.4115 37.272 32.3663 38.6418 30.1139 39.5744C27.8615 40.507 25.4466 40.9839 23.0088 40.9776C18.0617 40.9776 13.408 39.049 9.88634 35.5441C8.16066 33.8252 6.79301 31.781 5.86252 29.53C4.93204 27.279 4.4572 24.8658 4.46547 22.4301C4.47102 17.5123 6.42677 12.7975 9.90378 9.31966C13.3808 5.84187 18.0952 3.88505 23.013 3.87839V3.88678ZM90.3567 7.56777C81.0913 7.56777 76.2196 12.6281 76.2196 22.275C76.2196 31.8757 80.6217 37.0744 90.3064 37.0744C94.7504 37.0744 99.1064 35.9424 101.471 34.2864V20.3842H89.9835V25.7254H95.3709V30.7354C94.3772 31.1127 92.4361 31.4942 90.5914 31.4942C84.6381 31.4942 82.6509 28.4672 82.6509 22.3211C82.6509 16.46 84.5375 13.0054 90.4992 13.0054C93.8113 13.0054 95.6979 14.0451 97.2617 16.0324L101.379 12.2508C98.8716 8.65781 94.4737 7.56777 90.3525 7.56777H90.3567ZM55.0854 7.9954V36.6468H75.4189V31.0708H61.7095V7.99121L55.0854 7.9954ZM15.9361 12.7035C16.6421 12.7035 17.3193 12.984 17.8186 13.4833C18.3178 13.9826 18.5983 14.6597 18.5983 15.3658C18.5983 16.0718 18.3178 16.749 17.8186 17.2482C17.3193 17.7475 16.6421 18.028 15.9361 18.028C15.23 18.028 14.5529 17.7475 14.0536 17.2482C13.5543 16.749 13.2739 16.0718 13.2739 15.3658C13.2739 14.6597 13.5543 13.9826 14.0536 13.4833C14.5529 12.984 15.23 12.7035 15.9361 12.7035ZM22.1326 12.7119H23.8934V30.4042H28.3039V32.1399H22.1326V12.7119Z" fill="#A9A9B9"/>
</svg>
