<svg width="247" height="53" viewBox="0 0 247 53" fill="none" xmlns="http://www.w3.org/2000/svg">
<g clip-path="url(#clip0_578_356)">
<path d="M246.45 23.7753V19.4494H241.079V12.725L240.898 12.7802L235.852 14.3242L235.754 14.3544V19.4494H227.79V16.6113C227.79 15.2898 228.086 14.2781 228.668 13.6041C229.247 12.9373 230.074 12.5986 231.129 12.5986C231.888 12.5986 232.673 12.7773 233.464 13.1295L233.661 13.2179V8.66282L233.568 8.62919C232.831 8.36354 231.828 8.23047 230.585 8.23047C229.018 8.23047 227.595 8.57106 226.353 9.24697C225.129 9.90503 224.121 10.9017 223.449 12.1178C222.767 13.3447 222.421 14.7613 222.421 16.3293V19.4499H218.681V23.7758H222.421V41.9983H227.79V23.7753H235.754V35.3555C235.754 40.1248 238.003 42.5421 242.44 42.5421C243.206 42.5377 243.97 42.4527 244.719 42.2885C245.517 42.117 246.06 41.9455 246.38 41.7625L246.45 41.7207V37.3549L246.232 37.4995C245.941 37.6941 245.578 37.8526 245.152 37.9703C244.725 38.0904 244.368 38.1509 244.092 38.1509C243.052 38.1509 242.283 37.8709 241.806 37.3179C241.324 36.7607 241.079 35.785 241.079 34.4207V23.7753H246.45ZM206.69 38.1514C204.741 38.1514 203.204 37.5048 202.121 36.2323C201.032 34.9525 200.48 33.129 200.48 30.8111C200.48 28.4202 201.032 26.5491 202.122 25.2468C203.205 23.9536 204.727 23.2969 206.646 23.2969C208.507 23.2969 209.989 23.9238 211.051 25.1617C212.118 26.4054 212.659 28.2617 212.659 30.6804C212.659 33.129 212.15 35.0101 211.146 36.2683C210.149 37.5173 208.65 38.1514 206.69 38.1514ZM206.929 18.9061C203.211 18.9061 200.257 19.9956 198.152 22.1444C196.048 24.2937 194.981 27.2673 194.981 30.9845C194.981 34.5149 196.022 37.3544 198.076 39.4235C200.13 41.493 202.926 42.5412 206.385 42.5412C209.989 42.5412 212.883 41.4368 214.988 39.2582C217.092 37.0821 218.159 34.1363 218.159 30.5056C218.159 26.9204 217.158 24.0597 215.184 22.0046C213.209 19.9486 210.431 18.9061 206.929 18.9061ZM186.323 18.9061C183.794 18.9061 181.702 19.5532 180.104 20.8286C178.496 22.1117 177.68 23.795 177.68 25.8314C177.68 26.8897 177.856 27.8298 178.203 28.6272C178.551 29.4276 179.091 30.1318 179.808 30.7232C180.519 31.3097 181.616 31.9241 183.071 32.5486C184.294 33.0521 185.206 33.4782 185.786 33.8135C186.352 34.1426 186.754 34.4731 186.981 34.7949C187.201 35.1096 187.313 35.541 187.313 36.0728C187.313 37.5879 186.179 38.3248 183.845 38.3248C182.979 38.3248 181.991 38.1442 180.909 37.7877C179.835 37.4365 178.821 36.9225 177.903 36.2635L177.68 36.104V41.273L177.762 41.3114C178.522 41.6621 179.48 41.9575 180.609 42.1905C181.736 42.423 182.759 42.5417 183.649 42.5417C186.393 42.5417 188.604 41.8917 190.216 40.6086C191.839 39.3163 192.662 37.5942 192.662 35.4867C192.662 33.9672 192.219 32.6635 191.346 31.6124C190.479 30.5699 188.975 29.6125 186.877 28.7666C185.205 28.0955 184.134 27.5387 183.692 27.1111C183.266 26.698 183.05 26.1139 183.05 25.3745C183.05 24.7183 183.317 24.1933 183.865 23.7676C184.417 23.3401 185.186 23.1225 186.15 23.1225C187.045 23.1225 187.96 23.2637 188.87 23.5404C189.78 23.8176 190.578 24.1889 191.246 24.6424L191.465 24.7923V19.8885L191.381 19.8525C190.766 19.5883 189.954 19.3625 188.969 19.1799C187.987 18.9984 187.097 18.9061 186.323 18.9061ZM163.682 38.1514C161.734 38.1514 160.197 37.5048 159.114 36.2323C158.025 34.9525 157.474 33.129 157.474 30.8111C157.474 28.4202 158.025 26.5491 159.116 25.2468C160.198 23.9536 161.72 23.2969 163.639 23.2969C165.501 23.2969 166.983 23.9238 168.044 25.1617C169.111 26.4054 169.653 28.2617 169.653 30.6804C169.653 33.129 169.143 35.0101 168.139 36.2683C167.142 37.5173 165.643 38.1514 163.682 38.1514ZM163.922 18.9061C160.203 18.9061 157.25 19.9956 155.145 22.1444C153.041 24.2937 151.973 27.2673 151.973 30.9845C151.973 34.5163 153.016 37.3544 155.07 39.4235C157.124 41.493 159.919 42.5412 163.378 42.5412C166.981 42.5412 169.877 41.4368 171.982 39.2582C174.086 37.0821 175.153 34.1363 175.153 30.5056C175.153 26.9204 174.152 24.0597 172.177 22.0046C170.201 19.9486 167.424 18.9061 163.922 18.9061ZM143.823 23.3545V19.4494H138.519V41.9974H143.822V30.4628C143.822 28.5014 144.267 26.8902 145.145 25.6733C146.011 24.4709 147.166 23.8613 148.575 23.8613C149.053 23.8613 149.589 23.9401 150.17 24.0962C150.745 24.2509 151.161 24.419 151.407 24.5958L151.63 24.7577V19.411L151.543 19.374C151.05 19.1641 150.351 19.0584 149.467 19.0584C148.134 19.0584 146.941 19.4864 145.92 20.3295C145.023 21.0707 144.374 22.0872 143.879 23.3545H143.823ZM129.021 18.9061C126.587 18.9061 124.417 19.4283 122.57 20.4568C120.721 21.4872 119.29 22.9596 118.317 24.8307C117.348 26.698 116.856 28.879 116.856 31.3112C116.856 33.4412 117.333 35.3964 118.275 37.119C119.219 38.8451 120.554 40.1955 122.244 41.1322C123.932 42.0675 125.883 42.5417 128.042 42.5417C130.563 42.5417 132.715 42.0377 134.441 41.0443L134.51 41.0039V36.1448L134.288 36.3077C133.494 36.883 132.62 37.3382 131.693 37.6585C130.755 37.9857 129.901 38.1509 129.152 38.1509C127.07 38.1509 125.4 37.5 124.187 36.2164C122.972 34.9304 122.355 33.1256 122.355 30.8538C122.355 28.5682 122.998 26.7167 124.264 25.35C125.527 23.9881 127.201 23.2973 129.239 23.2973C130.982 23.2973 132.681 23.8877 134.288 25.0536L134.51 25.215V20.0951L134.439 20.0547C133.834 19.7161 133.009 19.4365 131.985 19.2246C130.966 19.0132 129.968 18.9061 129.021 18.9061ZM113.203 19.4494H107.898V41.9974H113.203V19.4494ZM110.605 9.84409C109.732 9.84409 108.971 10.1414 108.345 10.7299C107.717 11.3208 107.398 12.0644 107.398 12.9416C107.398 13.8054 107.713 14.5351 108.335 15.1101C108.953 15.6832 109.717 15.9738 110.605 15.9738C111.493 15.9738 112.259 15.6832 112.885 15.1111C113.514 14.5351 113.834 13.8054 113.834 12.9416C113.834 12.0952 113.523 11.3588 112.911 10.7539C112.299 10.1501 111.523 9.84409 110.605 9.84409ZM97.3712 17.7863V41.9969H102.784V10.5344H95.2926L85.7698 33.9038L76.5291 10.5344H68.7324V41.9974H73.8192V17.7839H73.9941L83.7522 41.9974H87.5905L97.1963 17.7859L97.3712 17.7863Z" fill="#A9A9B9"/>
<path d="M25.443 24.9723H0.492188V0.0214844H25.443V24.9723Z" fill="#A9A9B9"/>
<path d="M52.9938 24.9723H28.043V0.0214844H52.9938V24.9723Z" fill="#A9A9B9"/>
<path d="M25.4426 52.5329H0.492188V27.582H25.4426V52.5329Z" fill="#A9A9B9"/>
<path d="M52.9938 52.5329H28.043V27.582H52.9938V52.5329Z" fill="#A9A9B9"/>
</g>
<defs>
<clipPath id="clip0_578_356">
<rect width="245.958" height="52.8426" fill="white" transform="translate(0.492188 0.0214844)"/>
</clipPath>
</defs>
</svg>
