<svg width="179" height="47" viewBox="0 0 179 47" fill="none" xmlns="http://www.w3.org/2000/svg">
<path d="M57.4543 36.4573L59.6872 31.263C62.0983 33.0673 65.296 34.0039 68.4584 34.0039C70.8007 34.0039 72.2682 33.1026 72.2682 31.7304C72.2329 27.9136 58.2815 30.9032 58.1792 21.3136C58.1439 16.4491 62.4563 12.694 68.5678 12.694C72.1994 12.694 75.8292 13.5971 78.4202 15.6572L76.3337 20.9555C73.9632 19.4387 71.0141 18.3575 68.2097 18.3575C66.3013 18.3575 65.0473 19.2606 65.0473 20.4105C65.0826 24.1585 79.1363 22.1055 79.2809 31.263C79.2809 36.2368 75.0796 39.7361 69.0369 39.7361C64.6134 39.7361 60.5479 38.692 57.4543 36.4573ZM142.997 29.3881C142.3 30.631 141.21 31.6072 139.898 32.1637C138.587 32.7202 137.127 32.8253 135.749 32.4627C134.371 32.1 133.153 31.29 132.285 30.1599C131.417 29.0298 130.949 27.6435 130.954 26.2186C130.952 25.3719 131.116 24.533 131.439 23.75C131.761 22.967 132.235 22.2553 132.833 21.6557C133.431 21.056 134.141 20.5802 134.923 20.2555C135.705 19.9307 136.543 19.7635 137.39 19.7632C139.794 19.7632 141.882 21.1002 142.999 23.0438L149.144 19.6186C146.842 15.5126 142.418 12.694 137.39 12.694C129.942 12.694 123.906 18.7579 123.906 26.2186C123.906 33.6793 129.942 39.7361 137.39 39.7361C139.79 39.7413 142.147 39.1013 144.215 37.8831C146.283 36.6649 147.985 34.9133 149.144 32.8116L142.997 29.3881ZM82.3746 1.48355H90.0716V39.2335H82.3746V1.48355ZM152.169 1.48355V39.2335H159.857V27.9136L168.993 39.2335H178.846L167.229 25.7847L177.983 13.2391H168.559L159.857 23.6559V1.48531H152.167L152.169 1.48355ZM112.937 29.4639C111.822 31.3036 109.521 32.667 106.93 32.667C106.084 32.6665 105.246 32.4993 104.465 32.1749C103.683 31.8505 102.974 31.3753 102.376 30.7764C101.779 30.1775 101.305 29.4667 100.982 28.6847C100.659 27.9026 100.494 27.0646 100.495 26.2186C100.494 25.3722 100.659 24.5338 100.982 23.7512C101.304 22.9687 101.778 22.2573 102.375 21.6578C102.973 21.0583 103.682 20.5825 104.464 20.2574C105.245 19.9323 106.083 19.7644 106.93 19.7632C109.521 19.7632 111.822 21.2025 112.937 23.0773V29.4639ZM112.937 13.2373V16.3062C111.678 14.1756 108.549 12.694 105.277 12.694C98.5183 12.694 93.1988 18.682 93.1988 26.1781C93.1988 33.6811 98.5183 39.7361 105.277 39.7361C108.549 39.7361 111.678 38.2546 112.937 36.1327V39.1999H120.634V13.2373H112.937ZM9.88902 29.4216C9.88902 32.0549 7.76721 34.1838 5.14096 34.1838C4.51647 34.1833 3.89818 34.0597 3.32151 33.82C2.74484 33.5804 2.22109 33.2293 1.78024 32.787C1.33939 32.3447 0.990092 31.8197 0.752339 31.2423C0.514585 30.6648 0.393042 30.0461 0.394666 29.4216C0.393506 28.7977 0.515429 28.1796 0.753455 27.6028C0.991482 27.0261 1.34093 26.5019 1.78181 26.0604C2.22268 25.6189 2.74631 25.2686 3.32273 25.0298C3.89914 24.7909 4.51701 24.668 5.14096 24.6683H9.88902V29.4216ZM12.2578 29.4216C12.2566 28.7975 12.3786 28.1793 12.6167 27.6024C12.8549 27.0256 13.2045 26.5013 13.6455 26.0598C14.0866 25.6182 14.6104 25.268 15.187 25.0292C15.7637 24.7905 16.3817 24.6678 17.0058 24.6683C17.6299 24.668 18.2479 24.7909 18.8245 25.0299C19.401 25.2689 19.9247 25.6193 20.3656 26.061C20.8065 26.5027 21.1559 27.0271 21.3938 27.6041C21.6318 28.181 21.7535 28.7993 21.7521 29.4234V41.3218C21.7535 41.9461 21.6318 42.5646 21.3939 43.1419C21.1561 43.7191 20.8067 44.2438 20.3659 44.686C19.9251 45.1281 19.4014 45.479 18.8249 45.7186C18.2483 45.9581 17.6302 46.0817 17.0058 46.0822C16.3812 46.0819 15.7627 45.9585 15.1858 45.7189C14.609 45.4793 14.085 45.1283 13.644 44.686C13.2029 44.2436 12.8535 43.7186 12.6156 43.1411C12.3777 42.5635 12.2561 41.9446 12.2578 41.32V29.4216ZM17.0058 10.3183C16.3812 10.318 15.7627 10.1946 15.1858 9.95502C14.609 9.71544 14.085 9.36442 13.644 8.92208C13.2029 8.47973 12.8535 7.95473 12.6156 7.37714C12.3777 6.79956 12.2561 6.18073 12.2578 5.55609C12.2566 4.93199 12.3786 4.31379 12.6167 3.73691C12.8549 3.16002 13.2045 2.63579 13.6455 2.19424C14.0866 1.75269 14.6104 1.4025 15.187 1.16372C15.7637 0.92494 16.3817 0.802271 17.0058 0.802736C17.6298 0.802503 18.2476 0.925341 18.8241 1.16422C19.4005 1.40311 19.9241 1.75334 20.365 2.19487C20.8059 2.6364 21.1553 3.16055 21.3933 3.73732C21.6314 4.31408 21.7533 4.93214 21.7521 5.55609V10.3183H17.0058ZM17.0058 12.7364C17.6298 12.7361 18.2476 12.859 18.8241 13.0979C19.4005 13.3368 19.9241 13.687 20.365 14.1285C20.8059 14.57 21.1553 15.0942 21.3933 15.671C21.6314 16.2477 21.7533 16.8658 21.7521 17.4897C21.7521 20.1213 19.6303 22.2519 17.0058 22.2519H5.10745C4.4828 22.2517 3.86434 22.1282 3.28746 21.8887C2.71058 21.6491 2.18662 21.2981 1.74559 20.8557C1.30455 20.4134 0.955094 19.8884 0.717231 19.3108C0.479367 18.7332 0.357767 18.1144 0.359391 17.4897C0.358231 16.8656 0.480211 16.2474 0.718348 15.6706C0.956484 15.0937 1.3061 14.5694 1.74716 14.1279C2.18822 13.6863 2.71206 13.3361 3.28867 13.0974C3.86529 12.8586 4.48335 12.7359 5.10745 12.7364H17.0058ZM36.028 17.4897C36.0269 16.8658 36.1488 16.2477 36.3868 15.671C36.6249 15.0942 36.9743 14.57 37.4152 14.1285C37.8561 13.687 38.3797 13.3368 38.9561 13.0979C39.5325 12.859 40.1504 12.7361 40.7744 12.7364C41.3985 12.7359 42.0165 12.8586 42.5931 13.0974C43.1697 13.3361 43.6936 13.6863 44.1346 14.1279C44.5757 14.5694 44.9253 15.0937 45.1634 15.6706C45.4016 16.2474 45.5236 16.8656 45.5224 17.4897C45.5224 20.1213 43.4006 22.2519 40.7744 22.2519H36.028V17.4897ZM33.6575 17.4897C33.6575 20.1213 31.5357 22.2519 28.9113 22.2519C28.2866 22.2517 27.6681 22.1282 27.0913 21.8887C26.5144 21.6491 25.9904 21.2981 25.5494 20.8557C25.1084 20.4134 24.7589 19.8884 24.521 19.3108C24.2832 18.7332 24.1616 18.1144 24.1632 17.4897V5.55609C24.162 4.93199 24.284 4.31379 24.5222 3.73691C24.7603 3.16002 25.1099 2.63579 25.551 2.19424C25.992 1.75269 26.5159 1.4025 27.0925 1.16372C27.6691 0.92494 28.2872 0.802271 28.9113 0.802736C29.5352 0.802503 30.1531 0.925341 30.7295 1.16422C31.3059 1.40311 31.8295 1.75334 32.2704 2.19487C32.7113 2.6364 33.0607 3.16055 33.2988 3.73732C33.5368 4.31408 33.6587 4.93214 33.6575 5.55609V17.4897ZM28.9113 36.5666C29.5354 36.5664 30.1534 36.6893 30.7299 36.9283C31.3064 37.1673 31.8301 37.5177 32.271 37.9594C32.7119 38.4011 33.0613 38.9255 33.2993 39.5024C33.5372 40.0794 33.6589 40.6977 33.6575 41.3218C33.6589 41.9461 33.5372 42.5646 33.2994 43.1419C33.0615 43.7191 32.7122 44.2438 32.2714 44.686C31.8305 45.1281 31.3069 45.479 30.7303 45.7186C30.1537 45.9581 29.5356 46.0817 28.9113 46.0822C28.2866 46.0819 27.6681 45.9585 27.0913 45.7189C26.5144 45.4793 25.9904 45.1283 25.5494 44.686C25.1084 44.2436 24.7589 43.7186 24.521 43.1411C24.2832 42.5635 24.1616 41.9446 24.1632 41.32V36.5666H28.9113ZM28.9113 34.1838C28.2866 34.1835 27.6681 34.0601 27.0913 33.8205C26.5144 33.581 25.9904 33.2299 25.5494 32.7876C25.1084 32.3453 24.7589 31.8203 24.521 31.2427C24.2832 30.6651 24.1616 30.0463 24.1632 29.4216C24.162 28.7975 24.284 28.1793 24.5222 27.6024C24.7603 27.0256 25.1099 26.5013 25.551 26.0598C25.992 25.6182 26.5159 25.268 27.0925 25.0292C27.6691 24.7905 28.2872 24.6678 28.9113 24.6683H40.8096C41.4337 24.668 42.0517 24.7909 42.6283 25.0299C43.2048 25.2689 43.7285 25.6193 44.1694 26.061C44.6103 26.5027 44.9597 27.0271 45.1976 27.6041C45.4356 28.181 45.5573 28.7993 45.5559 29.4234C45.5573 30.0477 45.4356 30.6662 45.1977 31.2435C44.9599 31.8208 44.6105 32.3455 44.1697 32.7876C43.7289 33.2297 43.2052 33.5806 42.6287 33.8202C42.0521 34.0598 41.434 34.1833 40.8096 34.1838H28.9113Z" fill="#A9A9B9"/>
</svg>
