<svg width="23" height="21" viewBox="0 0 23 21" fill="none" xmlns="http://www.w3.org/2000/svg">
<path d="M10.257 1.63738C10.6285 0.911601 11.6658 0.9116 12.0373 1.63738L14.5156 6.47884C14.6639 6.76855 14.9439 6.96797 15.2662 7.01339L20.7483 7.78607C21.5795 7.90323 21.9052 8.93052 21.2934 9.5052L17.3753 13.1851C17.129 13.4165 17.0161 13.7565 17.0753 14.0892L18.0061 19.3223C18.1506 20.1345 17.305 20.7624 16.5693 20.3893L11.5994 17.869C11.3151 17.7249 10.9791 17.7249 10.6949 17.869L5.725 20.3893C4.9893 20.7624 4.14372 20.1345 4.28817 19.3223L5.21896 14.0892C5.27813 13.7565 5.16531 13.4165 4.91902 13.1851L1.0009 9.5052C0.389032 8.93052 0.714731 7.90323 1.54594 7.78607L7.02809 7.01339C7.35037 6.96797 7.63038 6.76855 7.77868 6.47884L10.257 1.63738Z" fill="url(#paint0_linear_578_251)" stroke="#FAAF3B" stroke-linecap="round" stroke-linejoin="round"/>
<defs>
<linearGradient id="paint0_linear_578_251" x1="11.1471" y1="-0.101562" x2="11.1471" y2="21.2959" gradientUnits="userSpaceOnUse">
<stop stop-color="#FFFFE7"/>
<stop offset="1" stop-color="#F9AF19"/>
</linearGradient>
</defs>
</svg>
